<?xml version="1.0" standalone="no"?>
<svg viewBox="0 0 1740 1817" version="1.1" xmlns="http://www.w3.org/2000/svg" xmlns:xlink="http://www.w3.org/1999/xlink" stroke-linecap="round" stroke-linejoin="round" fill-rule="evenodd" xml:space="preserve" >
<g fill="none" stroke="rgb(0,0,0)" stroke-width="2.27125" >
<polygon points="1552.96,794.312 1021.49,408.176 1021.3,408.036 1021.1,407.898 1020.9,407.761 1020.7,407.627 1020.5,407.495 1020.3,407.365 1020.1,407.237 1019.9,407.111 1019.69,406.986 1019.48,406.864 1019.28,406.745 1019.07,406.627 1018.86,406.511 1018.65,406.397 1018.43,406.286 1018.22,406.176 1018,406.069 1017.79,405.964 1017.57,405.861 1017.35,405.76 1017.14,405.662 1016.92,405.565 1016.69,405.471 1016.47,405.379 1016.25,405.289 1016.03,405.202 1015.8,405.116 1015.58,405.033 1015.35,404.953 1015.12,404.874 1014.9,404.798 1014.67,404.724 1014.44,404.652 1014.21,404.583 1013.98,404.516 1013.75,404.451 1013.52,404.389 1013.28,404.328 1013.05,404.271 1012.82,404.215 1012.58,404.162 1012.35,404.111 1012.11,404.063 1011.88,404.017 1011.64,403.973 1011.41,403.931 1011.17,403.892 1010.93,403.856 1010.69,403.821 1010.46,403.79 1010.22,403.76 1009.98,403.733 1009.74,403.708 1009.5,403.686 1009.26,403.666 1009.02,403.648 1008.78,403.633 1008.55,403.62 1008.31,403.61 1008.07,403.602 1007.83,403.596 1007.59,403.593 1007.35,403.592 1007.11,403.594 1006.87,403.598 1006.63,403.604 1006.39,403.613 1006.15,403.624 1005.91,403.638 1005.67,403.654 1005.43,403.672 1005.19,403.693 1004.95,403.716 1004.71,403.742 1004.47,403.77 1004.23,403.8 1004,403.833 1003.76,403.868 1003.52,403.905 1003.29,403.945 1003.05,403.987 1002.81,404.032 1002.58,404.079 1002.34,404.128 1002.11,404.18 1001.88,404.233 1001.64,404.29 1001.41,404.348 1001.18,404.409 1000.95,404.472 1000.71,404.538 1000.48,404.606 1000.25,404.676 1000.03,404.749 999.798,404.823 999.571,404.9 999.344,404.98 999.118,405.061 998.893,405.145 998.669,405.231 998.446,405.319 998.224,405.41 998.003,405.502 997.782,405.597 997.563,405.695 997.344,405.794 997.127,405.895 996.91,405.999 996.695,406.105 996.481,406.213 996.267,406.323 996.055,406.435 995.844,406.55 995.634,406.666 995.426,406.785 995.218,406.905 995.012,407.028 994.807,407.153 994.603,407.28 994.401,407.408 994.2,407.539 994,407.672 993.801,407.807 993.604,407.944 993.408,408.083 993.214,408.223 993.021,408.366 992.829,408.511 992.639,408.657 992.451,408.806 992.263,408.956 992.078,409.108 991.894,409.262 991.711,409.418 991.53,409.576 991.351,409.735 991.173,409.896 990.997,410.059 990.822,410.224 990.65,410.39 990.478,410.559 990.309,410.729 990.141,410.9 989.975,411.073 989.811,411.248 989.648,411.425 989.487,411.603 989.328,411.783 989.171,411.964 989.016,412.147 988.862,412.332 988.711,412.518 988.561,412.705 988.413,412.894 988.267,413.085 988.123,413.277 987.981,413.47 987.84,413.665 987.702,413.861 987.566,414.058 987.431,414.257 987.299,414.457 987.169,414.659 987.04,414.862 986.914,415.066 986.79,415.271 986.668,415.478 986.548,415.686 986.43,415.894 986.314,416.105 986.2,416.316 986.088,416.528 985.979,416.742 985.871,416.956 985.766,417.172 985.663,417.389 985.562,417.607 985.463,417.825 985.366,418.045 985.272,418.266 985.18,418.487 985.09,418.71 985.002,418.933 984.917,419.158 984.834,419.383 984.753,419.609 984.674,419.835 984.598,420.063 984.523,420.291 984.451,420.52 984.382,420.75 984.315,420.98 984.25,421.211 984.187,421.443 984.127,421.675 984.069,421.908 984.013,422.141 983.96,422.375 983.909,422.61 983.86,422.845 983.814,423.08 983.77,423.316 983.728,423.553 983.689,423.79 983.652,424.027 983.618,424.264 983.586,424.502 983.556,424.74 983.529,424.979 983.504,425.217 983.481,425.456 983.461,425.695 983.443,425.935 983.428,426.174 983.415,426.414 983.404,426.654 983.396,426.894 983.39,427.133 983.387,427.373 983.386,427.592 983.386,1578.27 870,1734.33 756.614,1578.27 756.614,427.592 756.613,427.352 756.609,427.112 756.603,426.872 756.595,426.632 756.584,426.393 756.571,426.153 756.555,425.914 756.537,425.674 756.517,425.435 756.494,425.196 756.469,424.958 756.442,424.719 756.412,424.481 756.379,424.243 756.345,424.006 756.308,423.769 756.268,423.532 756.226,423.295 756.182,423.06 756.136,422.824 756.087,422.589 756.036,422.355 755.982,422.121 755.926,421.887 755.868,421.655 755.808,421.422 755.745,421.191 755.68,420.96 755.612,420.729 755.542,420.5 755.47,420.271 755.396,420.043 755.319,419.815 755.24,419.589 755.159,419.363 755.076,419.138 754.99,418.913 754.902,418.69 754.812,418.468 754.72,418.246 754.625,418.026 754.528,417.806 754.429,417.587 754.328,417.37 754.225,417.153 754.119,416.937 754.012,416.723 753.902,416.51 753.79,416.297 753.676,416.086 753.56,415.876 753.442,415.667 753.322,415.459 753.199,415.253 753.075,415.048 752.948,414.844 752.82,414.641 752.689,414.44 752.557,414.24 752.422,414.041 752.286,413.843 752.147,413.647 752.007,413.453 751.864,413.26 751.72,413.068 751.574,412.877 751.426,412.689 751.276,412.501 751.124,412.315 750.97,412.131 750.815,411.948 750.658,411.767 750.498,411.587 750.337,411.409 750.175,411.233 750.01,411.058 749.844,410.885 749.676,410.713 749.506,410.544 749.335,410.376 749.162,410.209 748.987,410.045 748.811,409.882 748.633,409.721 748.454,409.561 748.273,409.404 748.09,409.248 747.906,409.094 747.72,408.942 747.533,408.792 747.344,408.644 747.154,408.498 746.962,408.353 746.769,408.211 746.575,408.07 746.379,407.932 746.181,407.795 745.983,407.66 745.783,407.528 745.581,407.397 745.379,407.268 745.175,407.142 744.97,407.017 744.763,406.895 744.556,406.774 744.347,406.656 744.137,406.539 743.926,406.425 743.714,406.313 743.5,406.203 743.286,406.095 743.071,405.99 742.854,405.886 742.636,405.785 742.418,405.686 742.198,405.589 741.978,405.494 741.756,405.402 741.534,405.311 741.311,405.223 741.087,405.137 740.862,405.054 740.636,404.972 740.409,404.893 740.182,404.817 739.954,404.742 739.725,404.67 739.495,404.6 739.265,404.532 739.034,404.467 738.803,404.404 738.57,404.343 738.338,404.285 738.104,404.229 737.87,404.175 737.636,404.123 737.401,404.074 737.166,404.028 736.93,403.983 736.693,403.941 736.457,403.902 736.22,403.865 735.982,403.83 735.744,403.797 735.506,403.767 735.268,403.739 735.029,403.714 734.79,403.691 734.551,403.67 734.312,403.652 734.072,403.637 733.833,403.623 733.593,403.612 733.353,403.604 733.113,403.597 732.873,403.594 732.633,403.592 732.393,403.593 732.153,403.597 731.913,403.602 731.674,403.611 731.434,403.621 731.194,403.634 730.955,403.65 730.715,403.667 730.476,403.688 730.237,403.71 729.998,403.735 729.76,403.763 729.522,403.792 729.284,403.824 729.047,403.859 728.809,403.896 728.573,403.935 728.336,403.977 728.1,404.02 727.865,404.067 727.63,404.115 727.395,404.167 727.161,404.22 726.928,404.276 726.695,404.334 726.463,404.394 726.231,404.457 726,404.522 725.77,404.589 725.54,404.658 725.311,404.73 725.083,404.805 724.855,404.881 724.629,404.96 724.403,405.041 724.177,405.124 723.953,405.209 723.73,405.297 723.507,405.387 723.286,405.479 723.065,405.574 722.845,405.67 722.627,405.769 722.409,405.87 722.192,405.973 721.977,406.078 721.762,406.186 721.548,406.296 721.336,406.407 721.125,406.521 720.915,406.637 720.706,406.755 720.498,406.875 720.291,406.997 720.086,407.122 719.882,407.248 719.679,407.376 719.478,407.507 719.277,407.639 719.079,407.773 718.881,407.91 718.685,408.048 718.507,408.176 187.037,794.312 79.2003,645.888 841.786,91.8367 842.045,91.6503 842.436,91.3727 842.831,91.0991 843.228,90.8293 843.627,90.5636 844.03,90.3019 844.435,90.0442 844.842,89.7906 845.252,89.5411 845.665,89.2957 846.08,89.0544 846.497,88.8173 846.917,88.5843 847.339,88.3556 847.763,88.1311 848.19,87.9109 848.618,87.6949 849.049,87.4832 849.482,87.2759 849.917,87.0729 850.354,86.8742 850.793,86.68 851.234,86.4901 851.676,86.3046 852.121,86.1236 852.567,85.9471 853.015,85.775 853.465,85.6074 853.917,85.4443 854.37,85.2857 854.824,85.1317 855.28,84.9822 855.738,84.8373 856.197,84.697 856.657,84.5612 857.119,84.4301 857.582,84.3036 858.046,84.1818 858.512,84.0646 858.979,83.952 859.446,83.8441 859.915,83.7409 860.385,83.6424 860.856,83.5486 861.327,83.4596 861.8,83.3752 862.273,83.2956 862.747,83.2207 863.222,83.1505 863.698,83.0851 864.174,83.0244 864.65,82.9686 865.128,82.9175 865.605,82.8711 866.084,82.8296 866.562,82.7928 867.041,82.7608 867.52,82.7336 868,82.7112 868.48,82.6936 868.959,82.6808 869.439,82.6728 869.919,82.6696 870.399,82.6712 870.879,82.6776 871.359,82.6888 871.839,82.7048 872.318,82.7256 872.798,82.7511 873.277,82.7815 873.755,82.8167 874.234,82.8566 874.712,82.9013 875.189,82.9508 875.666,83.0051 876.142,83.0642 876.618,83.128 877.093,83.1965 877.568,83.2698 878.041,83.3479 878.514,83.4307 878.986,83.5182 879.457,83.6104 879.927,83.7073 880.396,83.8089 880.864,83.9152 881.331,84.0262 881.797,84.1418 882.262,84.2621 882.725,84.3871 883.187,84.5166 883.648,84.6508 884.108,84.7896 884.566,84.933 885.023,85.0809 885.478,85.2334 885.931,85.3905 886.383,85.552 886.834,85.7181 887.282,85.8887 887.729,86.0638 888.174,86.2433 888.618,86.4272 889.059,86.6156 889.499,86.8084 889.936,87.0056 890.372,87.2071 890.806,87.413 891.237,87.6232 891.667,87.8378 892.094,88.0566 892.519,88.2796 892.942,88.5069 893.362,88.7385 893.78,88.9742 894.196,89.2141 894.609,89.4581 895.02,89.7062 895.429,89.9585 895.834,90.2148 896.238,90.4752 896.638,90.7395 897.036,91.0079 897.431,91.2802 897.824,91.5565 898.214,91.8367 1660.8,645.888 " />
<polygon points="951.26,600.472 951.256,599.66 951.244,598.847 951.223,598.035 951.195,597.223 951.158,596.411 951.114,595.599 951.061,594.789 951,593.978 950.931,593.169 950.854,592.36 950.769,591.552 950.675,590.744 950.574,589.938 950.465,589.133 950.347,588.329 950.222,587.526 950.088,586.724 949.947,585.924 949.798,585.125 949.64,584.328 949.475,583.533 949.301,582.739 949.12,581.947 948.931,581.156 948.734,580.368 948.529,579.582 948.316,578.798 948.095,578.016 947.867,577.236 947.63,576.458 947.386,575.683 947.135,574.911 946.875,574.14 946.608,573.373 946.333,572.608 946.051,571.846 945.761,571.087 945.463,570.331 945.158,569.578 944.845,568.828 944.525,568.081 944.197,567.338 943.862,566.597 943.52,565.86 943.17,565.127 942.813,564.397 942.449,563.671 942.077,562.948 941.698,562.229 941.312,561.514 940.919,560.803 940.519,560.096 940.112,559.393 939.697,558.694 939.276,557.999 938.848,557.308 938.413,556.622 937.971,555.94 937.522,555.262 937.067,554.589 936.604,553.921 936.136,553.257 935.66,552.598 935.178,551.944 934.69,551.295 934.195,550.65 933.693,550.011 933.185,549.377 932.671,548.747 932.151,548.123 931.624,547.504 931.092,546.891 930.553,546.282 930.008,545.68 929.457,545.082 928.9,544.49 928.337,543.904 927.769,543.324 927.194,542.749 926.614,542.18 926.029,541.617 925.437,541.059 924.84,540.508 924.238,539.963 923.63,539.423 923.017,538.89 922.399,538.363 921.775,537.842 921.146,537.327 920.512,536.819 919.873,536.317 919.229,535.822 918.58,535.333 917.926,534.85 917.267,534.374 916.604,533.905 915.936,533.442 915.264,532.986 914.586,532.537 913.905,532.094 913.219,531.659 912.529,531.23 911.834,530.808 911.135,530.393 910.433,529.985 909.726,529.585 909.015,529.191 908.3,528.804 907.581,528.425 906.859,528.053 906.133,527.688 905.403,527.33 904.67,526.98 903.934,526.637 903.194,526.301 902.45,525.973 901.704,525.652 900.954,525.339 900.201,525.033 899.445,524.735 898.686,524.444 897.925,524.161 897.16,523.886 896.393,523.618 895.623,523.358 894.851,523.105 894.076,522.861 893.298,522.624 892.519,522.395 891.737,522.174 890.953,521.96 890.167,521.754 889.379,521.557 888.588,521.367 887.796,521.185 887.003,521.011 886.207,520.845 885.41,520.687 884.612,520.537 883.812,520.395 883.01,520.261 882.207,520.134 881.403,520.016 880.598,519.906 879.792,519.804 878.985,519.711 878.177,519.625 877.368,519.547 876.558,519.477 875.748,519.416 874.937,519.362 874.126,519.317 873.314,519.28 872.502,519.251 871.69,519.23 870.877,519.217 870.065,519.212 869.252,519.216 868.44,519.227 867.627,519.247 866.815,519.275 866.003,519.311 865.192,519.355 864.381,519.407 863.571,519.467 862.761,519.535 861.952,519.612 861.144,519.696 860.336,519.789 859.53,519.89 858.725,519.998 857.921,520.115 857.118,520.24 856.316,520.373 855.516,520.514 854.717,520.662 853.92,520.819 853.124,520.984 852.33,521.157 851.538,521.337 850.747,521.526 849.959,521.722 849.172,521.927 848.388,522.139 847.606,522.359 846.826,522.587 846.048,522.823 845.273,523.066 844.5,523.317 843.73,523.576 842.962,523.842 842.197,524.117 841.435,524.399 840.676,524.688 839.919,524.985 839.166,525.29 838.416,525.602 837.668,525.921 836.925,526.248 836.184,526.583 835.447,526.925 834.713,527.274 833.983,527.63 833.256,527.994 832.533,528.365 831.814,528.743 831.099,529.129 830.387,529.521 829.68,529.921 828.976,530.328 828.277,530.742 827.582,531.162 826.891,531.59 826.204,532.024 825.522,532.466 824.844,532.914 824.171,533.369 823.502,533.831 822.838,534.299 822.178,534.774 821.524,535.255 820.874,535.743 820.229,536.238 819.59,536.739 818.955,537.246 818.325,537.76 817.7,538.28 817.081,538.806 816.467,539.338 815.859,539.876 815.255,540.421 814.658,540.971 814.065,541.528 813.479,542.09 812.898,542.658 812.322,543.232 811.753,543.811 811.189,544.397 810.631,544.988 810.08,545.584 809.534,546.186 808.994,546.793 808.46,547.406 807.932,548.024 807.411,548.647 806.896,549.276 806.387,549.91 805.885,550.548 805.389,551.192 804.899,551.84 804.416,552.494 803.94,553.152 803.47,553.815 803.007,554.483 802.55,555.155 802.1,555.832 801.657,556.513 801.221,557.198 800.792,557.888 800.369,558.583 799.954,559.281 799.546,559.983 799.144,560.69 798.75,561.401 798.363,562.115 797.983,562.833 797.61,563.555 797.244,564.281 796.886,565.01 796.535,565.743 796.192,566.48 795.855,567.219 795.527,567.963 795.205,568.709 794.891,569.458 794.585,570.211 794.286,570.967 793.995,571.725 793.711,572.487 793.435,573.251 793.167,574.018 792.906,574.788 792.653,575.56 792.408,576.335 792.17,577.112 791.941,577.891 791.719,578.673 791.505,579.457 791.298,580.243 791.1,581.031 790.91,581.821 790.727,582.613 790.552,583.406 790.386,584.201 790.227,584.998 790.076,585.797 789.934,586.597 789.799,587.398 789.672,588.201 789.553,589.005 789.443,589.81 789.34,590.616 789.246,591.423 789.159,592.231 789.081,593.04 789.01,593.849 788.948,594.659 788.894,595.47 788.848,596.282 788.81,597.093 788.781,597.905 788.759,598.718 788.746,599.53 788.74,600.343 788.743,601.155 788.754,601.968 788.773,602.78 788.8,603.592 788.835,604.404 788.879,605.216 788.93,606.027 788.99,606.837 789.058,607.647 789.133,608.456 789.217,609.264 789.309,610.071 789.409,610.878 789.517,611.683 789.633,612.487 789.758,613.291 789.89,614.092 790.03,614.893 790.178,615.692 790.334,616.489 790.498,617.285 790.671,618.079 790.851,618.872 791.039,619.662 791.234,620.451 791.438,621.237 791.65,622.022 791.869,622.804 792.096,623.585 792.331,624.362 792.574,625.138 792.825,625.911 793.083,626.681 793.349,627.449 793.622,628.214 793.904,628.977 794.193,629.736 794.489,630.493 794.793,631.246 795.104,631.997 795.423,632.744 795.75,633.488 796.084,634.229 796.425,634.967 796.774,635.701 797.13,636.431 797.493,637.158 797.863,637.881 798.241,638.601 798.626,639.317 799.018,640.028 799.417,640.736 799.823,641.44 800.236,642.14 800.656,642.835 801.084,643.527 801.518,644.214 801.958,644.896 802.406,645.574 802.86,646.248 803.321,646.917 803.789,647.582 804.264,648.241 804.745,648.896 805.232,649.546 805.726,650.192 806.226,650.832 806.733,651.467 807.246,652.097 807.766,652.722 808.291,653.342 808.823,653.956 809.361,654.565 809.905,655.169 810.455,655.767 811.011,656.36 811.573,656.947 812.14,657.528 812.714,658.104 813.293,658.674 813.878,659.238 814.468,659.797 815.064,660.349 815.666,660.895 816.273,661.436 816.885,661.97 817.503,662.498 818.126,663.02 818.754,663.535 819.387,664.045 820.025,664.548 820.668,665.044 821.316,665.534 821.969,666.018 822.627,666.495 823.29,666.965 823.957,667.429 824.629,667.886 825.305,668.336 825.986,668.78 826.672,669.217 827.361,669.646 828.055,670.069 828.753,670.485 829.455,670.894 830.161,671.296 830.872,671.691 831.586,672.079 832.304,672.459 833.026,672.833 833.751,673.199 834.48,673.558 835.213,673.909 835.949,674.253 836.688,674.59 837.431,674.92 838.177,675.242 838.926,675.556 839.679,675.863 840.434,676.162 841.193,676.454 841.954,676.739 842.718,677.015 843.485,677.284 844.254,677.546 845.026,677.799 845.801,678.045 846.578,678.283 847.357,678.513 848.138,678.736 848.922,678.951 849.708,679.158 850.496,679.357 851.286,679.548 852.077,679.731 852.871,679.906 853.666,680.073 854.463,680.233 855.261,680.384 856.061,680.528 856.862,680.663 857.665,680.79 858.469,680.91 859.273,681.021 860.08,681.124 860.887,681.219 861.694,681.306 862.503,681.385 863.313,681.456 864.123,681.519 864.934,681.574 865.745,681.62 866.557,681.659 867.369,681.689 868.181,681.712 868.993,681.726 869.806,681.732 870.618,681.73 871.431,681.719 872.243,681.701 873.056,681.675 873.867,681.64 874.679,681.597 875.49,681.546 876.3,681.487 877.11,681.42 877.919,681.345 878.728,681.262 879.535,681.171 880.342,681.071 881.147,680.964 881.951,680.848 882.754,680.725 883.556,680.593 884.357,680.454 885.156,680.306 885.954,680.151 886.75,679.987 887.544,679.816 888.336,679.636 889.127,679.449 889.916,679.254 890.703,679.051 891.487,678.84 892.27,678.621 893.05,678.394 893.828,678.16 894.604,677.918 895.377,677.668 896.148,677.41 896.916,677.145 897.681,676.872 898.444,676.591 899.204,676.303 899.961,676.007 900.714,675.704 901.465,675.393 902.213,675.074 902.957,674.749 903.698,674.415 904.436,674.075 905.17,673.727 905.901,673.371 906.628,673.009 907.352,672.639 908.072,672.262 908.788,671.877 909.5,671.486 910.208,671.087 910.912,670.682 911.612,670.269 912.308,669.849 913,669.423 913.687,668.989 914.37,668.549 915.048,668.102 915.722,667.648 916.392,667.188 917.057,666.72 917.717,666.247 918.372,665.766 919.023,665.279 919.668,664.786 920.309,664.286 920.945,663.779 921.575,663.267 922.2,662.748 922.821,662.223 923.435,661.692 924.045,661.154 924.649,660.611 925.248,660.061 925.841,659.506 926.428,658.944 927.01,658.377 927.586,657.804 928.157,657.226 928.721,656.641 929.28,656.051 929.833,655.456 930.38,654.854 930.921,654.248 931.455,653.636 931.984,653.019 932.506,652.396 933.022,651.769 933.532,651.136 934.036,650.498 934.533,649.855 935.023,649.208 935.507,648.555 935.985,647.897 936.456,647.235 936.92,646.568 937.378,645.897 937.829,645.221 938.273,644.54 938.71,643.855 939.14,643.166 939.564,642.473 939.98,641.775 940.39,641.073 940.792,640.367 941.188,639.657 941.576,638.943 941.957,638.226 942.331,637.504 942.698,636.779 943.057,636.05 943.409,635.318 943.754,634.582 944.092,633.843 944.422,633.1 944.744,632.354 945.059,631.605 945.367,630.853 945.667,630.098 945.959,629.34 946.244,628.579 946.521,627.815 946.791,627.049 947.053,626.279 947.307,625.508 947.554,624.733 947.792,623.956 948.023,623.177 948.246,622.396 948.462,621.612 948.669,620.827 948.869,620.039 949.061,619.249 949.244,618.458 949.42,617.665 949.588,616.87 949.748,616.073 949.9,615.275 950.044,614.475 950.18,613.674 950.308,612.871 950.428,612.068 950.54,611.263 950.644,610.457 950.74,609.65 950.828,608.842 950.907,608.033 950.979,607.224 951.042,606.414 951.098,605.603 951.145,604.792 951.184,603.98 951.215,603.168 951.238,602.356 951.253,601.544 951.259,600.731 " />
<polygon points="951.26,1356.38 951.256,1355.57 951.244,1354.75 951.223,1353.94 951.195,1353.13 951.158,1352.32 951.114,1351.5 951.061,1350.69 951,1349.88 950.931,1349.07 950.854,1348.27 950.769,1347.46 950.675,1346.65 950.574,1345.84 950.465,1345.04 950.347,1344.23 950.222,1343.43 950.088,1342.63 949.947,1341.83 949.798,1341.03 949.64,1340.23 949.475,1339.44 949.301,1338.64 949.12,1337.85 948.931,1337.06 948.734,1336.27 948.529,1335.49 948.316,1334.7 948.095,1333.92 947.867,1333.14 947.63,1332.36 947.386,1331.59 947.135,1330.82 946.875,1330.05 946.608,1329.28 946.333,1328.51 946.051,1327.75 945.761,1326.99 945.463,1326.24 945.158,1325.48 944.845,1324.73 944.525,1323.99 944.197,1323.24 943.862,1322.5 943.52,1321.77 943.17,1321.03 942.813,1320.3 942.449,1319.58 942.077,1318.85 941.698,1318.13 941.312,1317.42 940.919,1316.71 940.519,1316 940.112,1315.3 939.697,1314.6 939.276,1313.9 938.848,1313.21 938.413,1312.53 937.971,1311.85 937.522,1311.17 937.067,1310.49 936.604,1309.83 936.136,1309.16 935.66,1308.5 935.178,1307.85 934.69,1307.2 934.195,1306.56 933.693,1305.92 933.185,1305.28 932.671,1304.65 932.151,1304.03 931.624,1303.41 931.092,1302.8 930.553,1302.19 930.008,1301.59 929.457,1300.99 928.9,1300.4 928.337,1299.81 927.769,1299.23 927.194,1298.65 926.614,1298.09 926.029,1297.52 925.437,1296.96 924.84,1296.41 924.238,1295.87 923.63,1295.33 923.017,1294.8 922.399,1294.27 921.775,1293.75 921.146,1293.23 920.512,1292.72 919.873,1292.22 919.229,1291.73 918.58,1291.24 917.926,1290.76 917.267,1290.28 916.604,1289.81 915.936,1289.35 915.264,1288.89 914.586,1288.44 913.905,1288 913.219,1287.56 912.529,1287.14 911.834,1286.71 911.135,1286.3 910.433,1285.89 909.726,1285.49 909.015,1285.1 908.3,1284.71 907.581,1284.33 906.859,1283.96 906.133,1283.59 905.403,1283.24 904.67,1282.89 903.934,1282.54 903.194,1282.21 902.45,1281.88 901.704,1281.56 900.954,1281.24 900.201,1280.94 899.445,1280.64 898.686,1280.35 897.925,1280.07 897.16,1279.79 896.393,1279.52 895.623,1279.26 894.851,1279.01 894.076,1278.77 893.298,1278.53 892.519,1278.3 891.737,1278.08 890.953,1277.87 890.167,1277.66 889.379,1277.46 888.588,1277.27 887.796,1277.09 887.003,1276.92 886.207,1276.75 885.41,1276.59 884.612,1276.44 883.812,1276.3 883.01,1276.17 882.207,1276.04 881.403,1275.92 880.598,1275.81 879.792,1275.71 878.985,1275.62 878.177,1275.53 877.368,1275.45 876.558,1275.38 875.748,1275.32 874.937,1275.27 874.126,1275.22 873.314,1275.19 872.502,1275.16 871.69,1275.14 870.877,1275.12 870.065,1275.12 869.252,1275.12 868.44,1275.13 867.627,1275.15 866.815,1275.18 866.003,1275.22 865.192,1275.26 864.381,1275.31 863.571,1275.37 862.761,1275.44 861.952,1275.52 861.144,1275.6 860.336,1275.69 859.53,1275.8 858.725,1275.9 857.921,1276.02 857.118,1276.15 856.316,1276.28 855.516,1276.42 854.717,1276.57 853.92,1276.72 853.124,1276.89 852.33,1277.06 851.538,1277.24 850.747,1277.43 849.959,1277.63 849.172,1277.83 848.388,1278.04 847.606,1278.26 846.826,1278.49 846.048,1278.73 845.273,1278.97 844.5,1279.22 843.73,1279.48 842.962,1279.75 842.197,1280.02 841.435,1280.3 840.676,1280.59 839.919,1280.89 839.166,1281.2 838.416,1281.51 837.668,1281.83 836.925,1282.15 836.184,1282.49 835.447,1282.83 834.713,1283.18 833.983,1283.54 833.256,1283.9 832.533,1284.27 831.814,1284.65 831.099,1285.03 830.387,1285.43 829.68,1285.83 828.976,1286.23 828.277,1286.65 827.582,1287.07 826.891,1287.5 826.204,1287.93 825.522,1288.37 824.844,1288.82 824.171,1289.27 823.502,1289.74 822.838,1290.2 822.178,1290.68 821.524,1291.16 820.874,1291.65 820.229,1292.14 819.59,1292.64 818.955,1293.15 818.325,1293.67 817.7,1294.19 817.081,1294.71 816.467,1295.24 815.859,1295.78 815.255,1296.33 814.658,1296.88 814.065,1297.43 813.479,1298 812.898,1298.56 812.322,1299.14 811.753,1299.72 811.189,1300.3 810.631,1300.89 810.08,1301.49 809.534,1302.09 808.994,1302.7 808.46,1303.31 807.932,1303.93 807.411,1304.55 806.896,1305.18 806.387,1305.82 805.885,1306.45 805.389,1307.1 804.899,1307.75 804.416,1308.4 803.94,1309.06 803.47,1309.72 803.007,1310.39 802.55,1311.06 802.1,1311.74 801.657,1312.42 801.221,1313.1 800.792,1313.79 800.369,1314.49 799.954,1315.19 799.546,1315.89 799.144,1316.6 798.75,1317.31 798.363,1318.02 797.983,1318.74 797.61,1319.46 797.244,1320.19 796.886,1320.92 796.535,1321.65 796.192,1322.39 795.855,1323.12 795.527,1323.87 795.205,1324.61 794.891,1325.36 794.585,1326.12 794.286,1326.87 793.995,1327.63 793.711,1328.39 793.435,1329.16 793.167,1329.92 792.906,1330.69 792.653,1331.47 792.408,1332.24 792.17,1333.02 791.941,1333.8 791.719,1334.58 791.505,1335.36 791.298,1336.15 791.1,1336.94 790.91,1337.73 790.727,1338.52 790.552,1339.31 790.386,1340.11 790.227,1340.9 790.076,1341.7 789.934,1342.5 789.799,1343.3 789.672,1344.11 789.553,1344.91 789.443,1345.72 789.34,1346.52 789.246,1347.33 789.159,1348.14 789.081,1348.95 789.01,1349.75 788.948,1350.57 788.894,1351.38 788.848,1352.19 788.81,1353 788.781,1353.81 788.759,1354.62 788.746,1355.44 788.74,1356.25 788.743,1357.06 788.754,1357.87 788.773,1358.69 788.8,1359.5 788.835,1360.31 788.879,1361.12 788.93,1361.93 788.99,1362.74 789.058,1363.55 789.133,1364.36 789.217,1365.17 789.309,1365.98 789.409,1366.78 789.517,1367.59 789.633,1368.39 789.758,1369.2 789.89,1370 790.03,1370.8 790.178,1371.6 790.334,1372.39 790.498,1373.19 790.671,1373.98 790.851,1374.78 791.039,1375.57 791.234,1376.36 791.438,1377.14 791.65,1377.93 791.869,1378.71 792.096,1379.49 792.331,1380.27 792.574,1381.04 792.825,1381.82 793.083,1382.59 793.349,1383.35 793.622,1384.12 793.904,1384.88 794.193,1385.64 794.489,1386.4 794.793,1387.15 795.104,1387.9 795.423,1388.65 795.75,1389.39 796.084,1390.13 796.425,1390.87 796.774,1391.61 797.13,1392.34 797.493,1393.06 797.863,1393.79 798.241,1394.51 798.626,1395.22 799.018,1395.93 799.417,1396.64 799.823,1397.35 800.236,1398.05 800.656,1398.74 801.084,1399.43 801.518,1400.12 801.958,1400.8 802.406,1401.48 802.86,1402.15 803.321,1402.82 803.789,1403.49 804.264,1404.15 804.745,1404.8 805.232,1405.45 805.726,1406.1 806.226,1406.74 806.733,1407.37 807.246,1408 807.766,1408.63 808.291,1409.25 808.823,1409.86 809.361,1410.47 809.905,1411.07 810.455,1411.67 811.011,1412.27 811.573,1412.85 812.14,1413.43 812.714,1414.01 813.293,1414.58 813.878,1415.14 814.468,1415.7 815.064,1416.25 815.666,1416.8 816.273,1417.34 816.885,1417.88 817.503,1418.4 818.126,1418.93 818.754,1419.44 819.387,1419.95 820.025,1420.45 820.668,1420.95 821.316,1421.44 821.969,1421.92 822.627,1422.4 823.29,1422.87 823.957,1423.33 824.629,1423.79 825.305,1424.24 825.986,1424.69 826.672,1425.12 827.361,1425.55 828.055,1425.97 828.753,1426.39 829.455,1426.8 830.161,1427.2 830.872,1427.6 831.586,1427.98 832.304,1428.36 833.026,1428.74 833.751,1429.1 834.48,1429.46 835.213,1429.81 835.949,1430.16 836.688,1430.5 837.431,1430.83 838.177,1431.15 838.926,1431.46 839.679,1431.77 840.434,1432.07 841.193,1432.36 841.954,1432.64 842.718,1432.92 843.485,1433.19 844.254,1433.45 845.026,1433.7 845.801,1433.95 846.578,1434.19 847.357,1434.42 848.138,1434.64 848.922,1434.86 849.708,1435.06 850.496,1435.26 851.286,1435.45 852.077,1435.64 852.871,1435.81 853.666,1435.98 854.463,1436.14 855.261,1436.29 856.061,1436.43 856.862,1436.57 857.665,1436.7 858.469,1436.82 859.273,1436.93 860.08,1437.03 860.887,1437.12 861.694,1437.21 862.503,1437.29 863.313,1437.36 864.123,1437.42 864.934,1437.48 865.745,1437.53 866.557,1437.56 867.369,1437.59 868.181,1437.62 868.993,1437.63 869.806,1437.64 870.618,1437.64 871.431,1437.62 872.243,1437.61 873.056,1437.58 873.867,1437.55 874.679,1437.5 875.49,1437.45 876.3,1437.39 877.11,1437.33 877.919,1437.25 878.728,1437.17 879.535,1437.08 880.342,1436.98 881.147,1436.87 881.951,1436.75 882.754,1436.63 883.556,1436.5 884.357,1436.36 885.156,1436.21 885.954,1436.06 886.75,1435.89 887.544,1435.72 888.336,1435.54 889.127,1435.35 889.916,1435.16 890.703,1434.96 891.487,1434.75 892.27,1434.53 893.05,1434.3 893.828,1434.07 894.604,1433.82 895.377,1433.57 896.148,1433.32 896.916,1433.05 897.681,1432.78 898.444,1432.5 899.204,1432.21 899.961,1431.91 900.714,1431.61 901.465,1431.3 902.213,1430.98 902.957,1430.65 903.698,1430.32 904.436,1429.98 905.17,1429.63 905.901,1429.28 906.628,1428.91 907.352,1428.54 908.072,1428.17 908.788,1427.78 909.5,1427.39 910.208,1426.99 910.912,1426.59 911.612,1426.17 912.308,1425.75 913,1425.33 913.687,1424.89 914.37,1424.45 915.048,1424.01 915.722,1423.55 916.392,1423.09 917.057,1422.63 917.717,1422.15 918.372,1421.67 919.023,1421.18 919.668,1420.69 920.309,1420.19 920.945,1419.68 921.575,1419.17 922.2,1418.65 922.821,1418.13 923.435,1417.6 924.045,1417.06 924.649,1416.52 925.248,1415.97 925.841,1415.41 926.428,1414.85 927.01,1414.28 927.586,1413.71 928.157,1413.13 928.721,1412.55 929.28,1411.96 929.833,1411.36 930.38,1410.76 930.921,1410.15 931.455,1409.54 931.984,1408.92 932.506,1408.3 933.022,1407.67 933.532,1407.04 934.036,1406.4 934.533,1405.76 935.023,1405.11 935.507,1404.46 935.985,1403.8 936.456,1403.14 936.92,1402.47 937.378,1401.8 937.829,1401.13 938.273,1400.45 938.71,1399.76 939.14,1399.07 939.564,1398.38 939.98,1397.68 940.39,1396.98 940.792,1396.27 941.188,1395.56 941.576,1394.85 941.957,1394.13 942.331,1393.41 942.698,1392.68 943.057,1391.96 943.409,1391.22 943.754,1390.49 944.092,1389.75 944.422,1389.01 944.744,1388.26 945.059,1387.51 945.367,1386.76 945.667,1386 945.959,1385.25 946.244,1384.48 946.521,1383.72 946.791,1382.95 947.053,1382.18 947.307,1381.41 947.554,1380.64 947.792,1379.86 948.023,1379.08 948.246,1378.3 948.462,1377.52 948.669,1376.73 948.869,1375.94 949.061,1375.15 949.244,1374.36 949.42,1373.57 949.588,1372.78 949.748,1371.98 949.9,1371.18 950.044,1370.38 950.18,1369.58 950.308,1368.78 950.428,1367.97 950.54,1367.17 950.644,1366.36 950.74,1365.56 950.828,1364.75 950.907,1363.94 950.979,1363.13 951.042,1362.32 951.098,1361.51 951.145,1360.7 951.184,1359.89 951.215,1359.07 951.238,1358.26 951.253,1357.45 951.259,1356.64 " />
<polygon points="951.26,222.519 951.256,221.707 951.244,220.894 951.223,220.082 951.195,219.27 951.158,218.458 951.114,217.647 951.061,216.836 951,216.026 950.931,215.216 950.854,214.407 950.769,213.599 950.675,212.792 950.574,211.985 950.465,211.18 950.347,210.376 950.222,209.573 950.088,208.772 949.947,207.971 949.798,207.173 949.64,206.376 949.475,205.58 949.301,204.786 949.12,203.994 948.931,203.204 948.734,202.415 948.529,201.629 948.316,200.845 948.095,200.063 947.867,199.283 947.63,198.505 947.386,197.73 947.135,196.958 946.875,196.188 946.608,195.42 946.333,194.656 946.051,193.894 945.761,193.135 945.463,192.378 945.158,191.625 944.845,190.875 944.525,190.128 944.197,189.385 943.862,188.645 943.52,187.908 943.17,187.174 942.813,186.444 942.449,185.718 942.077,184.995 941.698,184.276 941.312,183.561 940.919,182.85 940.519,182.143 940.112,181.44 939.697,180.741 939.276,180.046 938.848,179.355 938.413,178.669 937.971,177.987 937.522,177.31 937.067,176.637 936.604,175.968 936.136,175.305 935.66,174.646 935.178,173.991 934.69,173.342 934.195,172.698 933.693,172.058 933.185,171.424 932.671,170.794 932.151,170.17 931.624,169.551 931.092,168.938 930.553,168.33 930.008,167.727 929.457,167.13 928.9,166.538 928.337,165.952 927.769,165.371 927.194,164.796 926.614,164.227 926.029,163.664 925.437,163.107 924.84,162.555 924.238,162.01 923.63,161.47 923.017,160.937 922.399,160.41 921.775,159.889 921.146,159.375 920.512,158.866 919.873,158.364 919.229,157.869 918.58,157.38 917.926,156.897 917.267,156.421 916.604,155.952 915.936,155.489 915.264,155.033 914.586,154.584 913.905,154.142 913.219,153.706 912.529,153.277 911.834,152.855 911.135,152.441 910.433,152.033 909.726,151.632 909.015,151.238 908.3,150.852 907.581,150.472 906.859,150.1 906.133,149.735 905.403,149.377 904.67,149.027 903.934,148.684 903.194,148.348 902.45,148.02 901.704,147.699 900.954,147.386 900.201,147.08 899.445,146.782 898.686,146.491 897.925,146.208 897.16,145.933 896.393,145.665 895.623,145.405 894.851,145.153 894.076,144.908 893.298,144.671 892.519,144.442 891.737,144.221 890.953,144.007 890.167,143.802 889.379,143.604 888.588,143.414 887.796,143.232 887.003,143.058 886.207,142.892 885.41,142.734 884.612,142.584 883.812,142.442 883.01,142.308 882.207,142.182 881.403,142.064 880.598,141.954 879.792,141.852 878.985,141.758 878.177,141.672 877.368,141.594 876.558,141.525 875.748,141.463 874.937,141.41 874.126,141.364 873.314,141.327 872.502,141.298 871.69,141.277 870.877,141.264 870.065,141.26 869.252,141.263 868.44,141.275 867.627,141.294 866.815,141.322 866.003,141.358 865.192,141.402 864.381,141.454 863.571,141.514 862.761,141.583 861.952,141.659 861.144,141.744 860.336,141.836 859.53,141.937 858.725,142.046 857.921,142.162 857.118,142.287 856.316,142.42 855.516,142.561 854.717,142.71 853.92,142.866 853.124,143.031 852.33,143.204 851.538,143.385 850.747,143.573 849.959,143.77 849.172,143.974 848.388,144.186 847.606,144.406 846.826,144.634 846.048,144.87 845.273,145.113 844.5,145.364 843.73,145.623 842.962,145.89 842.197,146.164 841.435,146.446 840.676,146.735 839.919,147.032 839.166,147.337 838.416,147.649 837.668,147.969 836.925,148.296 836.184,148.63 835.447,148.972 834.713,149.321 833.983,149.678 833.256,150.041 832.533,150.412 831.814,150.791 831.099,151.176 830.387,151.569 829.68,151.968 828.976,152.375 828.277,152.789 827.582,153.21 826.891,153.637 826.204,154.072 825.522,154.513 824.844,154.961 824.171,155.416 823.502,155.878 822.838,156.346 822.178,156.821 821.524,157.303 820.874,157.791 820.229,158.285 819.59,158.786 818.955,159.293 818.325,159.807 817.7,160.327 817.081,160.853 816.467,161.385 815.859,161.923 815.255,162.468 814.658,163.018 814.065,163.575 813.479,164.137 812.898,164.705 812.322,165.279 811.753,165.859 811.189,166.444 810.631,167.035 810.08,167.631 809.534,168.233 808.994,168.841 808.46,169.453 807.932,170.071 807.411,170.695 806.896,171.323 806.387,171.957 805.885,172.595 805.389,173.239 804.899,173.888 804.416,174.541 803.94,175.199 803.47,175.862 803.007,176.53 802.55,177.202 802.1,177.879 801.657,178.56 801.221,179.246 800.792,179.936 800.369,180.63 799.954,181.328 799.546,182.031 799.144,182.737 798.75,183.448 798.363,184.162 797.983,184.881 797.61,185.603 797.244,186.328 796.886,187.058 796.535,187.791 796.192,188.527 795.855,189.267 795.527,190.01 795.205,190.756 794.891,191.506 794.585,192.258 794.286,193.014 793.995,193.773 793.711,194.534 793.435,195.298 793.167,196.065 792.906,196.835 792.653,197.607 792.408,198.382 792.17,199.159 791.941,199.938 791.719,200.72 791.505,201.504 791.298,202.29 791.1,203.078 790.91,203.868 790.727,204.66 790.552,205.453 790.386,206.249 790.227,207.046 790.076,207.844 789.934,208.644 789.799,209.445 789.672,210.248 789.553,211.052 789.443,211.857 789.34,212.663 789.246,213.47 789.159,214.278 789.081,215.087 789.01,215.897 788.948,216.707 788.894,217.518 788.848,218.329 788.81,219.141 788.781,219.953 788.759,220.765 788.746,221.577 788.74,222.39 788.743,223.203 788.754,224.015 788.773,224.827 788.8,225.64 788.835,226.451 788.879,227.263 788.93,228.074 788.99,228.884 789.058,229.694 789.133,230.503 789.217,231.311 789.309,232.119 789.409,232.925 789.517,233.73 789.633,234.535 789.758,235.338 789.89,236.14 790.03,236.94 790.178,237.739 790.334,238.536 790.498,239.332 790.671,240.126 790.851,240.919 791.039,241.709 791.234,242.498 791.438,243.285 791.65,244.069 791.869,244.852 792.096,245.632 792.331,246.41 792.574,247.185 792.825,247.958 793.083,248.729 793.349,249.496 793.622,250.262 793.904,251.024 794.193,251.783 794.489,252.54 794.793,253.294 795.104,254.044 795.423,254.792 795.75,255.536 796.084,256.277 796.425,257.014 796.774,257.748 797.13,258.479 797.493,259.205 797.863,259.929 798.241,260.648 798.626,261.364 799.018,262.076 799.417,262.783 799.823,263.487 800.236,264.187 800.656,264.882 801.084,265.574 801.518,266.261 801.958,266.943 802.406,267.622 802.86,268.295 803.321,268.964 803.789,269.629 804.264,270.289 804.745,270.944 805.232,271.594 805.726,272.239 806.226,272.879 806.733,273.514 807.246,274.144 807.766,274.769 808.291,275.389 808.823,276.004 809.361,276.613 809.905,277.216 810.455,277.814 811.011,278.407 811.573,278.994 812.14,279.576 812.714,280.151 813.293,280.721 813.878,281.286 814.468,281.844 815.064,282.396 815.666,282.942 816.273,283.483 816.885,284.017 817.503,284.545 818.126,285.067 818.754,285.583 819.387,286.092 820.025,286.595 820.668,287.091 821.316,287.581 821.969,288.065 822.627,288.542 823.29,289.012 823.957,289.476 824.629,289.933 825.305,290.384 825.986,290.827 826.672,291.264 827.361,291.694 828.055,292.117 828.753,292.533 829.455,292.942 830.161,293.343 830.872,293.738 831.586,294.126 832.304,294.507 833.026,294.88 833.751,295.246 834.48,295.605 835.213,295.956 835.949,296.301 836.688,296.637 837.431,296.967 838.177,297.289 838.926,297.603 839.679,297.91 840.434,298.21 841.193,298.502 841.954,298.786 842.718,299.063 843.485,299.332 844.254,299.593 845.026,299.846 845.801,300.092 846.578,300.33 847.357,300.561 848.138,300.783 848.922,300.998 849.708,301.205 850.496,301.404 851.286,301.595 852.077,301.778 852.871,301.953 853.666,302.121 854.463,302.28 855.261,302.431 856.061,302.575 856.862,302.71 857.665,302.838 858.469,302.957 859.273,303.068 860.08,303.171 860.887,303.267 861.694,303.354 862.503,303.433 863.313,303.504 864.123,303.566 864.934,303.621 865.745,303.668 866.557,303.706 867.369,303.737 868.181,303.759 868.993,303.773 869.806,303.779 870.618,303.777 871.431,303.767 872.243,303.748 873.056,303.722 873.867,303.687 874.679,303.644 875.49,303.594 876.3,303.535 877.11,303.468 877.919,303.392 878.728,303.309 879.535,303.218 880.342,303.118 881.147,303.011 881.951,302.896 882.754,302.772 883.556,302.64 884.357,302.501 885.156,302.353 885.954,302.198 886.75,302.034 887.544,301.863 888.336,301.683 889.127,301.496 889.916,301.301 890.703,301.098 891.487,300.887 892.27,300.668 893.05,300.441 893.828,300.207 894.604,299.965 895.377,299.715 896.148,299.457 896.916,299.192 897.681,298.919 898.444,298.638 899.204,298.35 899.961,298.054 900.714,297.751 901.465,297.44 902.213,297.122 902.957,296.796 903.698,296.463 904.436,296.122 905.17,295.774 905.901,295.418 906.628,295.056 907.352,294.686 908.072,294.309 908.788,293.924 909.5,293.533 910.208,293.134 910.912,292.729 911.612,292.316 912.308,291.897 913,291.47 913.687,291.037 914.37,290.596 915.048,290.149 915.722,289.695 916.392,289.235 917.057,288.768 917.717,288.294 918.372,287.813 919.023,287.326 919.668,286.833 920.309,286.333 920.945,285.827 921.575,285.314 922.2,284.795 922.821,284.27 923.435,283.739 924.045,283.201 924.649,282.658 925.248,282.108 925.841,281.553 926.428,280.992 927.01,280.424 927.586,279.851 928.157,279.273 928.721,278.688 929.28,278.098 929.833,277.503 930.38,276.902 930.921,276.295 931.455,275.683 931.984,275.066 932.506,274.444 933.022,273.816 933.532,273.183 934.036,272.545 934.533,271.903 935.023,271.255 935.507,270.602 935.985,269.945 936.456,269.282 936.92,268.616 937.378,267.944 937.829,267.268 938.273,266.587 938.71,265.903 939.14,265.213 939.564,264.52 939.98,263.822 940.39,263.12 940.792,262.414 941.188,261.704 941.576,260.991 941.957,260.273 942.331,259.551 942.698,258.826 943.057,258.097 943.409,257.365 943.754,256.629 944.092,255.89 944.422,255.148 944.744,254.402 945.059,253.653 945.367,252.901 945.667,252.145 945.959,251.387 946.244,250.626 946.521,249.862 946.791,249.096 947.053,248.327 947.307,247.555 947.554,246.78 947.792,246.004 948.023,245.225 948.246,244.443 948.462,243.66 948.669,242.874 948.869,242.086 949.061,241.297 949.244,240.505 949.42,239.712 949.588,238.917 949.748,238.12 949.9,237.322 950.044,236.522 950.18,235.721 950.308,234.919 950.428,234.115 950.54,233.31 950.644,232.504 950.74,231.697 950.828,230.889 950.907,230.081 950.979,229.271 951.042,228.461 951.098,227.65 951.145,226.839 951.184,226.028 951.215,225.216 951.238,224.403 951.253,223.591 951.259,222.778 " />
<polygon points="951.26,978.425 951.256,977.612 951.244,976.8 951.223,975.987 951.195,975.175 951.158,974.364 951.114,973.552 951.061,972.741 951,971.931 950.931,971.121 950.854,970.312 950.769,969.504 950.675,968.697 950.574,967.891 950.465,967.086 950.347,966.282 950.222,965.479 950.088,964.677 949.947,963.877 949.798,963.078 949.64,962.281 949.475,961.485 949.301,960.692 949.12,959.899 948.931,959.109 948.734,958.321 948.529,957.535 948.316,956.75 948.095,955.968 947.867,955.188 947.63,954.411 947.386,953.636 947.135,952.863 946.875,952.093 946.608,951.326 946.333,950.561 946.051,949.799 945.761,949.04 945.463,948.284 945.158,947.531 944.845,946.781 944.525,946.034 944.197,945.29 943.862,944.55 943.52,943.813 943.17,943.08 942.813,942.35 942.449,941.623 942.077,940.901 941.698,940.182 941.312,939.467 940.919,938.756 940.519,938.048 940.112,937.345 939.697,936.646 939.276,935.951 938.848,935.261 938.413,934.574 937.971,933.893 937.522,933.215 937.067,932.542 936.604,931.874 936.136,931.21 935.66,930.551 935.178,929.897 934.69,929.248 934.195,928.603 933.693,927.964 933.185,927.329 932.671,926.7 932.151,926.076 931.624,925.457 931.092,924.843 930.553,924.235 930.008,923.632 929.457,923.035 928.9,922.443 928.337,921.857 927.769,921.277 927.194,920.702 926.614,920.133 926.029,919.569 925.437,919.012 924.84,918.461 924.238,917.915 923.63,917.376 923.017,916.843 922.399,916.316 921.775,915.795 921.146,915.28 920.512,914.772 919.873,914.27 919.229,913.774 918.58,913.285 917.926,912.803 917.267,912.327 916.604,911.858 915.936,911.395 915.264,910.939 914.586,910.49 913.905,910.047 913.219,909.611 912.529,909.183 911.834,908.761 911.135,908.346 910.433,907.938 909.726,907.537 909.015,907.144 908.3,906.757 907.581,906.378 906.859,906.006 906.133,905.641 905.403,905.283 904.67,904.932 903.934,904.589 903.194,904.254 902.45,903.926 901.704,903.605 900.954,903.292 900.201,902.986 899.445,902.688 898.686,902.397 897.925,902.114 897.16,901.838 896.393,901.571 895.623,901.311 894.851,901.058 894.076,900.814 893.298,900.577 892.519,900.348 891.737,900.126 890.953,899.913 890.167,899.707 889.379,899.51 888.588,899.32 887.796,899.138 887.003,898.964 886.207,898.798 885.41,898.64 884.612,898.49 883.812,898.347 883.01,898.213 882.207,898.087 881.403,897.969 880.598,897.859 879.792,897.757 878.985,897.663 878.177,897.577 877.368,897.5 876.558,897.43 875.748,897.369 874.937,897.315 874.126,897.27 873.314,897.233 872.502,897.204 871.69,897.183 870.877,897.17 870.065,897.165 869.252,897.168 868.44,897.18 867.627,897.2 866.815,897.227 866.003,897.263 865.192,897.307 864.381,897.36 863.571,897.42 862.761,897.488 861.952,897.565 861.144,897.649 860.336,897.742 859.53,897.842 858.725,897.951 857.921,898.068 857.118,898.193 856.316,898.326 855.516,898.466 854.717,898.615 853.92,898.772 853.124,898.937 852.33,899.11 851.538,899.29 850.747,899.479 849.959,899.675 849.172,899.88 848.388,900.092 847.606,900.312 846.826,900.54 846.048,900.775 845.273,901.019 844.5,901.27 843.73,901.529 842.962,901.795 842.197,902.069 841.435,902.351 840.676,902.641 839.919,902.938 839.166,903.242 838.416,903.554 837.668,903.874 836.925,904.201 836.184,904.536 835.447,904.877 834.713,905.227 833.983,905.583 833.256,905.947 832.533,906.318 831.814,906.696 831.099,907.082 830.387,907.474 829.68,907.874 828.976,908.281 828.277,908.694 827.582,909.115 826.891,909.543 826.204,909.977 825.522,910.419 824.844,910.867 824.171,911.322 823.502,911.783 822.838,912.252 822.178,912.727 821.524,913.208 820.874,913.696 820.229,914.191 819.59,914.691 818.955,915.199 818.325,915.712 817.7,916.232 817.081,916.758 816.467,917.291 815.859,917.829 815.255,918.373 814.658,918.924 814.065,919.48 813.479,920.043 812.898,920.611 812.322,921.185 811.753,921.764 811.189,922.35 810.631,922.94 810.08,923.537 809.534,924.139 808.994,924.746 808.46,925.359 807.932,925.977 807.411,926.6 806.896,927.229 806.387,927.862 805.885,928.501 805.389,929.145 804.899,929.793 804.416,930.447 803.94,931.105 803.47,931.768 803.007,932.435 802.55,933.108 802.1,933.784 801.657,934.466 801.221,935.151 800.792,935.841 800.369,936.535 799.954,937.234 799.546,937.936 799.144,938.643 798.75,939.353 798.363,940.068 797.983,940.786 797.61,941.508 797.244,942.234 796.886,942.963 796.535,943.696 796.192,944.432 795.855,945.172 795.527,945.915 795.205,946.662 794.891,947.411 794.585,948.164 794.286,948.919 793.995,949.678 793.711,950.44 793.435,951.204 793.167,951.971 792.906,952.74 792.653,953.513 792.408,954.287 792.17,955.064 791.941,955.844 791.719,956.626 791.505,957.41 791.298,958.196 791.1,958.984 790.91,959.773 790.727,960.565 790.552,961.359 790.386,962.154 790.227,962.951 790.076,963.75 789.934,964.55 789.799,965.351 789.672,966.154 789.553,966.957 789.443,967.763 789.34,968.569 789.246,969.376 789.159,970.184 789.081,970.992 789.01,971.802 788.948,972.612 788.894,973.423 788.848,974.234 788.81,975.046 788.781,975.858 788.759,976.67 788.746,977.483 788.74,978.295 788.743,979.108 788.754,979.921 788.773,980.733 788.8,981.545 788.835,982.357 788.879,983.168 788.93,983.979 788.99,984.79 789.058,985.599 789.133,986.409 789.217,987.217 789.309,988.024 789.409,988.831 789.517,989.636 789.633,990.44 789.758,991.243 789.89,992.045 790.03,992.845 790.178,993.644 790.334,994.442 790.498,995.238 790.671,996.032 790.851,996.824 791.039,997.615 791.234,998.403 791.438,999.19 791.65,999.975 791.869,1000.76 792.096,1001.54 792.331,1002.32 792.574,1003.09 792.825,1003.86 793.083,1004.63 793.349,1005.4 793.622,1006.17 793.904,1006.93 794.193,1007.69 794.489,1008.45 794.793,1009.2 795.104,1009.95 795.423,1010.7 795.75,1011.44 796.084,1012.18 796.425,1012.92 796.774,1013.65 797.13,1014.38 797.493,1015.11 797.863,1015.83 798.241,1016.55 798.626,1017.27 799.018,1017.98 799.417,1018.69 799.823,1019.39 800.236,1020.09 800.656,1020.79 801.084,1021.48 801.518,1022.17 801.958,1022.85 802.406,1023.53 802.86,1024.2 803.321,1024.87 803.789,1025.53 804.264,1026.19 804.745,1026.85 805.232,1027.5 805.726,1028.14 806.226,1028.78 806.733,1029.42 807.246,1030.05 807.766,1030.67 808.291,1031.29 808.823,1031.91 809.361,1032.52 809.905,1033.12 810.455,1033.72 811.011,1034.31 811.573,1034.9 812.14,1035.48 812.714,1036.06 813.293,1036.63 813.878,1037.19 814.468,1037.75 815.064,1038.3 815.666,1038.85 816.273,1039.39 816.885,1039.92 817.503,1040.45 818.126,1040.97 818.754,1041.49 819.387,1042 820.025,1042.5 820.668,1043 821.316,1043.49 821.969,1043.97 822.627,1044.45 823.29,1044.92 823.957,1045.38 824.629,1045.84 825.305,1046.29 825.986,1046.73 826.672,1047.17 827.361,1047.6 828.055,1048.02 828.753,1048.44 829.455,1048.85 830.161,1049.25 830.872,1049.64 831.586,1050.03 832.304,1050.41 833.026,1050.79 833.751,1051.15 834.48,1051.51 835.213,1051.86 835.949,1052.21 836.688,1052.54 837.431,1052.87 838.177,1053.19 838.926,1053.51 839.679,1053.82 840.434,1054.12 841.193,1054.41 841.954,1054.69 842.718,1054.97 843.485,1055.24 844.254,1055.5 845.026,1055.75 845.801,1056 846.578,1056.24 847.357,1056.47 848.138,1056.69 848.922,1056.9 849.708,1057.11 850.496,1057.31 851.286,1057.5 852.077,1057.68 852.871,1057.86 853.666,1058.03 854.463,1058.19 855.261,1058.34 856.061,1058.48 856.862,1058.62 857.665,1058.74 858.469,1058.86 859.273,1058.97 860.08,1059.08 860.887,1059.17 861.694,1059.26 862.503,1059.34 863.313,1059.41 864.123,1059.47 864.934,1059.53 865.745,1059.57 866.557,1059.61 867.369,1059.64 868.181,1059.66 868.993,1059.68 869.806,1059.68 870.618,1059.68 871.431,1059.67 872.243,1059.65 873.056,1059.63 873.867,1059.59 874.679,1059.55 875.49,1059.5 876.3,1059.44 877.11,1059.37 877.919,1059.3 878.728,1059.21 879.535,1059.12 880.342,1059.02 881.147,1058.92 881.951,1058.8 882.754,1058.68 883.556,1058.55 884.357,1058.41 885.156,1058.26 885.954,1058.1 886.75,1057.94 887.544,1057.77 888.336,1057.59 889.127,1057.4 889.916,1057.21 890.703,1057 891.487,1056.79 892.27,1056.57 893.05,1056.35 893.828,1056.11 894.604,1055.87 895.377,1055.62 896.148,1055.36 896.916,1055.1 897.681,1054.82 898.444,1054.54 899.204,1054.26 899.961,1053.96 900.714,1053.66 901.465,1053.35 902.213,1053.03 902.957,1052.7 903.698,1052.37 904.436,1052.03 905.17,1051.68 905.901,1051.32 906.628,1050.96 907.352,1050.59 908.072,1050.21 908.788,1049.83 909.5,1049.44 910.208,1049.04 910.912,1048.63 911.612,1048.22 912.308,1047.8 913,1047.38 913.687,1046.94 914.37,1046.5 915.048,1046.05 915.722,1045.6 916.392,1045.14 917.057,1044.67 917.717,1044.2 918.372,1043.72 919.023,1043.23 919.668,1042.74 920.309,1042.24 920.945,1041.73 921.575,1041.22 922.2,1040.7 922.821,1040.18 923.435,1039.64 924.045,1039.11 924.649,1038.56 925.248,1038.01 925.841,1037.46 926.428,1036.9 927.01,1036.33 927.586,1035.76 928.157,1035.18 928.721,1034.59 929.28,1034 929.833,1033.41 930.38,1032.81 930.921,1032.2 931.455,1031.59 931.984,1030.97 932.506,1030.35 933.022,1029.72 933.532,1029.09 934.036,1028.45 934.533,1027.81 935.023,1027.16 935.507,1026.51 935.985,1025.85 936.456,1025.19 936.92,1024.52 937.378,1023.85 937.829,1023.17 938.273,1022.49 938.71,1021.81 939.14,1021.12 939.564,1020.43 939.98,1019.73 940.39,1019.03 940.792,1018.32 941.188,1017.61 941.576,1016.9 941.957,1016.18 942.331,1015.46 942.698,1014.73 943.057,1014 943.409,1013.27 943.754,1012.53 944.092,1011.8 944.422,1011.05 944.744,1010.31 945.059,1009.56 945.367,1008.81 945.667,1008.05 945.959,1007.29 946.244,1006.53 946.521,1005.77 946.791,1005 947.053,1004.23 947.307,1003.46 947.554,1002.69 947.792,1001.91 948.023,1001.13 948.246,1000.35 948.462,999.565 948.669,998.78 948.869,997.992 949.061,997.202 949.244,996.411 949.42,995.617 949.588,994.822 949.748,994.026 949.9,993.227 950.044,992.428 950.18,991.627 950.308,990.824 950.428,990.02 950.54,989.216 950.644,988.41 950.74,987.603 950.828,986.795 950.907,985.986 950.979,985.177 951.042,984.367 951.098,983.556 951.145,982.745 951.184,981.933 951.215,981.121 951.238,980.309 951.253,979.496 951.259,978.684 " />
<polygon points="951.26,1167.4 951.256,1166.59 951.244,1165.78 951.223,1164.96 951.195,1164.15 951.158,1163.34 951.114,1162.53 951.061,1161.72 951,1160.91 950.931,1160.1 950.854,1159.29 950.769,1158.48 950.675,1157.67 950.574,1156.87 950.465,1156.06 950.347,1155.26 950.222,1154.46 950.088,1153.65 949.947,1152.85 949.798,1152.05 949.64,1151.26 949.475,1150.46 949.301,1149.67 949.12,1148.88 948.931,1148.09 948.734,1147.3 948.529,1146.51 948.316,1145.73 948.095,1144.94 947.867,1144.16 947.63,1143.39 947.386,1142.61 947.135,1141.84 946.875,1141.07 946.608,1140.3 946.333,1139.54 946.051,1138.78 945.761,1138.02 945.463,1137.26 945.158,1136.51 944.845,1135.76 944.525,1135.01 944.197,1134.27 943.862,1133.53 943.52,1132.79 943.17,1132.06 942.813,1131.33 942.449,1130.6 942.077,1129.88 941.698,1129.16 941.312,1128.44 940.919,1127.73 940.519,1127.02 940.112,1126.32 939.697,1125.62 939.276,1124.93 938.848,1124.24 938.413,1123.55 937.971,1122.87 937.522,1122.19 937.067,1121.52 936.604,1120.85 936.136,1120.19 935.66,1119.53 935.178,1118.87 934.69,1118.22 934.195,1117.58 933.693,1116.94 933.185,1116.31 932.671,1115.68 932.151,1115.05 931.624,1114.43 931.092,1113.82 930.553,1113.21 930.008,1112.61 929.457,1112.01 928.9,1111.42 928.337,1110.83 927.769,1110.25 927.194,1109.68 926.614,1109.11 926.029,1108.55 925.437,1107.99 924.84,1107.44 924.238,1106.89 923.63,1106.35 923.017,1105.82 922.399,1105.29 921.775,1104.77 921.146,1104.26 920.512,1103.75 919.873,1103.25 919.229,1102.75 918.58,1102.26 917.926,1101.78 917.267,1101.3 916.604,1100.83 915.936,1100.37 915.264,1099.92 914.586,1099.47 913.905,1099.02 913.219,1098.59 912.529,1098.16 911.834,1097.74 911.135,1097.32 910.433,1096.91 909.726,1096.51 909.015,1096.12 908.3,1095.73 907.581,1095.35 906.859,1094.98 906.133,1094.62 905.403,1094.26 904.67,1093.91 903.934,1093.57 903.194,1093.23 902.45,1092.9 901.704,1092.58 900.954,1092.27 900.201,1091.96 899.445,1091.66 898.686,1091.37 897.925,1091.09 897.16,1090.81 896.393,1090.55 895.623,1090.29 894.851,1090.03 894.076,1089.79 893.298,1089.55 892.519,1089.32 891.737,1089.1 890.953,1088.89 890.167,1088.68 889.379,1088.49 888.588,1088.3 887.796,1088.11 887.003,1087.94 886.207,1087.77 885.41,1087.62 884.612,1087.47 883.812,1087.32 883.01,1087.19 882.207,1087.06 881.403,1086.95 880.598,1086.84 879.792,1086.73 878.985,1086.64 878.177,1086.55 877.368,1086.48 876.558,1086.41 875.748,1086.34 874.937,1086.29 874.126,1086.25 873.314,1086.21 872.502,1086.18 871.69,1086.16 870.877,1086.15 870.065,1086.14 869.252,1086.14 868.44,1086.16 867.627,1086.18 866.815,1086.2 866.003,1086.24 865.192,1086.28 864.381,1086.34 863.571,1086.4 862.761,1086.46 861.952,1086.54 861.144,1086.63 860.336,1086.72 859.53,1086.82 858.725,1086.93 857.921,1087.04 857.118,1087.17 856.316,1087.3 855.516,1087.44 854.717,1087.59 853.92,1087.75 853.124,1087.91 852.33,1088.09 851.538,1088.27 850.747,1088.46 849.959,1088.65 849.172,1088.86 848.388,1089.07 847.606,1089.29 846.826,1089.52 846.048,1089.75 845.273,1090 844.5,1090.25 843.73,1090.51 842.962,1090.77 842.197,1091.05 841.435,1091.33 840.676,1091.62 839.919,1091.91 839.166,1092.22 838.416,1092.53 837.668,1092.85 836.925,1093.18 836.184,1093.51 835.447,1093.85 834.713,1094.2 833.983,1094.56 833.256,1094.92 832.533,1095.29 831.814,1095.67 831.099,1096.06 830.387,1096.45 829.68,1096.85 828.976,1097.26 828.277,1097.67 827.582,1098.09 826.891,1098.52 826.204,1098.95 825.522,1099.39 824.844,1099.84 824.171,1100.3 823.502,1100.76 822.838,1101.23 822.178,1101.7 821.524,1102.18 820.874,1102.67 820.229,1103.17 819.59,1103.67 818.955,1104.18 818.325,1104.69 817.7,1105.21 817.081,1105.73 816.467,1106.27 815.859,1106.81 815.255,1107.35 814.658,1107.9 814.065,1108.46 813.479,1109.02 812.898,1109.59 812.322,1110.16 811.753,1110.74 811.189,1111.33 810.631,1111.92 810.08,1112.51 809.534,1113.12 808.994,1113.72 808.46,1114.34 807.932,1114.95 807.411,1115.58 806.896,1116.21 806.387,1116.84 805.885,1117.48 805.389,1118.12 804.899,1118.77 804.416,1119.42 803.94,1120.08 803.47,1120.74 803.007,1121.41 802.55,1122.08 802.1,1122.76 801.657,1123.44 801.221,1124.13 800.792,1124.82 800.369,1125.51 799.954,1126.21 799.546,1126.91 799.144,1127.62 798.75,1128.33 798.363,1129.04 797.983,1129.76 797.61,1130.48 797.244,1131.21 796.886,1131.94 796.535,1132.67 796.192,1133.41 795.855,1134.15 795.527,1134.89 795.205,1135.64 794.891,1136.39 794.585,1137.14 794.286,1137.9 793.995,1138.65 793.711,1139.42 793.435,1140.18 793.167,1140.95 792.906,1141.72 792.653,1142.49 792.408,1143.26 792.17,1144.04 791.941,1144.82 791.719,1145.6 791.505,1146.39 791.298,1147.17 791.1,1147.96 790.91,1148.75 790.727,1149.54 790.552,1150.34 790.386,1151.13 790.227,1151.93 790.076,1152.73 789.934,1153.53 789.799,1154.33 789.672,1155.13 789.553,1155.93 789.443,1156.74 789.34,1157.54 789.246,1158.35 789.159,1159.16 789.081,1159.97 789.01,1160.78 788.948,1161.59 788.894,1162.4 788.848,1163.21 788.81,1164.02 788.781,1164.83 788.759,1165.65 788.746,1166.46 788.74,1167.27 788.743,1168.08 788.754,1168.9 788.773,1169.71 788.8,1170.52 788.835,1171.33 788.879,1172.14 788.93,1172.96 788.99,1173.77 789.058,1174.58 789.133,1175.38 789.217,1176.19 789.309,1177 789.409,1177.81 789.517,1178.61 789.633,1179.42 789.758,1180.22 789.89,1181.02 790.03,1181.82 790.178,1182.62 790.334,1183.42 790.498,1184.21 790.671,1185.01 790.851,1185.8 791.039,1186.59 791.234,1187.38 791.438,1188.17 791.65,1188.95 791.869,1189.73 792.096,1190.51 792.331,1191.29 792.574,1192.07 792.825,1192.84 793.083,1193.61 793.349,1194.38 793.622,1195.14 793.904,1195.91 794.193,1196.67 794.489,1197.42 794.793,1198.18 795.104,1198.93 795.423,1199.67 795.75,1200.42 796.084,1201.16 796.425,1201.9 796.774,1202.63 797.13,1203.36 797.493,1204.09 797.863,1204.81 798.241,1205.53 798.626,1206.25 799.018,1206.96 799.417,1207.67 799.823,1208.37 800.236,1209.07 800.656,1209.76 801.084,1210.46 801.518,1211.14 801.958,1211.83 802.406,1212.5 802.86,1213.18 803.321,1213.85 803.789,1214.51 804.264,1215.17 804.745,1215.83 805.232,1216.48 805.726,1217.12 806.226,1217.76 806.733,1218.4 807.246,1219.03 807.766,1219.65 808.291,1220.27 808.823,1220.89 809.361,1221.49 809.905,1222.1 810.455,1222.7 811.011,1223.29 811.573,1223.88 812.14,1224.46 812.714,1225.03 813.293,1225.6 813.878,1226.17 814.468,1226.73 815.064,1227.28 815.666,1227.82 816.273,1228.36 816.885,1228.9 817.503,1229.43 818.126,1229.95 818.754,1230.46 819.387,1230.97 820.025,1231.48 820.668,1231.97 821.316,1232.46 821.969,1232.95 822.627,1233.42 823.29,1233.89 823.957,1234.36 824.629,1234.82 825.305,1235.27 825.986,1235.71 826.672,1236.15 827.361,1236.58 828.055,1237 828.753,1237.41 829.455,1237.82 830.161,1238.23 830.872,1238.62 831.586,1239.01 832.304,1239.39 833.026,1239.76 833.751,1240.13 834.48,1240.49 835.213,1240.84 835.949,1241.18 836.688,1241.52 837.431,1241.85 838.177,1242.17 838.926,1242.49 839.679,1242.79 840.434,1243.09 841.193,1243.38 841.954,1243.67 842.718,1243.94 843.485,1244.21 844.254,1244.47 845.026,1244.73 845.801,1244.97 846.578,1245.21 847.357,1245.44 848.138,1245.67 848.922,1245.88 849.708,1246.09 850.496,1246.29 851.286,1246.48 852.077,1246.66 852.871,1246.84 853.666,1247 854.463,1247.16 855.261,1247.31 856.061,1247.46 856.862,1247.59 857.665,1247.72 858.469,1247.84 859.273,1247.95 860.08,1248.05 860.887,1248.15 861.694,1248.24 862.503,1248.31 863.313,1248.39 864.123,1248.45 864.934,1248.5 865.745,1248.55 866.557,1248.59 867.369,1248.62 868.181,1248.64 868.993,1248.65 869.806,1248.66 870.618,1248.66 871.431,1248.65 872.243,1248.63 873.056,1248.6 873.867,1248.57 874.679,1248.53 875.49,1248.48 876.3,1248.42 877.11,1248.35 877.919,1248.27 878.728,1248.19 879.535,1248.1 880.342,1248 881.147,1247.89 881.951,1247.78 882.754,1247.65 883.556,1247.52 884.357,1247.38 885.156,1247.24 885.954,1247.08 886.75,1246.92 887.544,1246.74 888.336,1246.57 889.127,1246.38 889.916,1246.18 890.703,1245.98 891.487,1245.77 892.27,1245.55 893.05,1245.32 893.828,1245.09 894.604,1244.85 895.377,1244.6 896.148,1244.34 896.916,1244.07 897.681,1243.8 898.444,1243.52 899.204,1243.23 899.961,1242.94 900.714,1242.63 901.465,1242.32 902.213,1242 902.957,1241.68 903.698,1241.34 904.436,1241 905.17,1240.66 905.901,1240.3 906.628,1239.94 907.352,1239.57 908.072,1239.19 908.788,1238.81 909.5,1238.41 910.208,1238.02 910.912,1237.61 911.612,1237.2 912.308,1236.78 913,1236.35 913.687,1235.92 914.37,1235.48 915.048,1235.03 915.722,1234.58 916.392,1234.12 917.057,1233.65 917.717,1233.18 918.372,1232.7 919.023,1232.21 919.668,1231.71 920.309,1231.21 920.945,1230.71 921.575,1230.2 922.2,1229.68 922.821,1229.15 923.435,1228.62 924.045,1228.08 924.649,1227.54 925.248,1226.99 925.841,1226.43 926.428,1225.87 927.01,1225.31 927.586,1224.73 928.157,1224.15 928.721,1223.57 929.28,1222.98 929.833,1222.38 930.38,1221.78 930.921,1221.18 931.455,1220.57 931.984,1219.95 932.506,1219.33 933.022,1218.7 933.532,1218.07 934.036,1217.43 934.533,1216.78 935.023,1216.14 935.507,1215.48 935.985,1214.83 936.456,1214.16 936.92,1213.5 937.378,1212.83 937.829,1212.15 938.273,1211.47 938.71,1210.78 939.14,1210.1 939.564,1209.4 939.98,1208.7 940.39,1208 940.792,1207.3 941.188,1206.59 941.576,1205.87 941.957,1205.15 942.331,1204.43 942.698,1203.71 943.057,1202.98 943.409,1202.25 943.754,1201.51 944.092,1200.77 944.422,1200.03 944.744,1199.28 945.059,1198.53 945.367,1197.78 945.667,1197.03 945.959,1196.27 946.244,1195.51 946.521,1194.74 946.791,1193.98 947.053,1193.21 947.307,1192.44 947.554,1191.66 947.792,1190.89 948.023,1190.11 948.246,1189.33 948.462,1188.54 948.669,1187.76 948.869,1186.97 949.061,1186.18 949.244,1185.39 949.42,1184.59 949.588,1183.8 949.748,1183 949.9,1182.2 950.044,1181.4 950.18,1180.6 950.308,1179.8 950.428,1179 950.54,1178.19 950.644,1177.39 950.74,1176.58 950.828,1175.77 950.907,1174.96 950.979,1174.15 951.042,1173.34 951.098,1172.53 951.145,1171.72 951.184,1170.91 951.215,1170.1 951.238,1169.29 951.253,1168.47 951.259,1167.66 " />
<polygon points="951.26,789.449 951.256,788.636 951.244,787.823 951.223,787.011 951.195,786.199 951.158,785.387 951.114,784.576 951.061,783.765 951,782.955 950.931,782.145 950.854,781.336 950.769,780.528 950.675,779.721 950.574,778.914 950.465,778.109 950.347,777.305 950.222,776.502 950.088,775.701 949.947,774.901 949.798,774.102 949.64,773.305 949.475,772.509 949.301,771.715 949.12,770.923 948.931,770.133 948.734,769.345 948.529,768.558 948.316,767.774 948.095,766.992 947.867,766.212 947.63,765.435 947.386,764.659 947.135,763.887 946.875,763.117 946.608,762.349 946.333,761.585 946.051,760.823 945.761,760.064 945.463,759.308 945.158,758.554 944.845,757.804 944.525,757.058 944.197,756.314 943.862,755.574 943.52,754.837 943.17,754.103 942.813,753.373 942.449,752.647 942.077,751.924 941.698,751.206 941.312,750.49 940.919,749.779 940.519,749.072 940.112,748.369 939.697,747.67 939.276,746.975 938.848,746.284 938.413,745.598 937.971,744.916 937.522,744.239 937.067,743.566 936.604,742.897 936.136,742.234 935.66,741.575 935.178,740.921 934.69,740.271 934.195,739.627 933.693,738.987 933.185,738.353 932.671,737.724 932.151,737.099 931.624,736.481 931.092,735.867 930.553,735.259 930.008,734.656 929.457,734.059 928.9,733.467 928.337,732.881 927.769,732.3 927.194,731.725 926.614,731.156 926.029,730.593 925.437,730.036 924.84,729.484 924.238,728.939 923.63,728.4 923.017,727.866 922.399,727.339 921.775,726.818 921.146,726.304 920.512,725.795 919.873,725.294 919.229,724.798 918.58,724.309 917.926,723.826 917.267,723.35 916.604,722.881 915.936,722.418 915.264,721.962 914.586,721.513 913.905,721.071 913.219,720.635 912.529,720.206 911.834,719.785 911.135,719.37 910.433,718.962 909.726,718.561 909.015,718.167 908.3,717.781 907.581,717.401 906.859,717.029 906.133,716.664 905.403,716.306 904.67,715.956 903.934,715.613 903.194,715.277 902.45,714.949 901.704,714.628 900.954,714.315 900.201,714.009 899.445,713.711 898.686,713.42 897.925,713.137 897.16,712.862 896.393,712.594 895.623,712.334 894.851,712.082 894.076,711.837 893.298,711.6 892.519,711.371 891.737,711.15 890.953,710.936 890.167,710.731 889.379,710.533 888.588,710.343 887.796,710.161 887.003,709.987 886.207,709.821 885.41,709.663 884.612,709.513 883.812,709.371 883.01,709.237 882.207,709.111 881.403,708.993 880.598,708.883 879.792,708.781 878.985,708.687 878.177,708.601 877.368,708.523 876.558,708.454 875.748,708.392 874.937,708.339 874.126,708.293 873.314,708.256 872.502,708.227 871.69,708.206 870.877,708.193 870.065,708.189 869.252,708.192 868.44,708.204 867.627,708.223 866.815,708.251 866.003,708.287 865.192,708.331 864.381,708.383 863.571,708.443 862.761,708.512 861.952,708.588 861.144,708.673 860.336,708.765 859.53,708.866 858.725,708.975 857.921,709.091 857.118,709.216 856.316,709.349 855.516,709.49 854.717,709.639 853.92,709.796 853.124,709.96 852.33,710.133 851.538,710.314 850.747,710.502 849.959,710.699 849.172,710.903 848.388,711.115 847.606,711.335 846.826,711.563 846.048,711.799 845.273,712.042 844.5,712.293 843.73,712.552 842.962,712.819 842.197,713.093 841.435,713.375 840.676,713.664 839.919,713.961 839.166,714.266 838.416,714.578 837.668,714.898 836.925,715.225 836.184,715.559 835.447,715.901 834.713,716.25 833.983,716.607 833.256,716.971 832.533,717.342 831.814,717.72 831.099,718.105 830.387,718.498 829.68,718.898 828.976,719.304 828.277,719.718 827.582,720.139 826.891,720.566 826.204,721.001 825.522,721.442 824.844,721.89 824.171,722.345 823.502,722.807 822.838,723.275 822.178,723.75 821.524,724.232 820.874,724.72 820.229,725.214 819.59,725.715 818.955,726.222 818.325,726.736 817.7,727.256 817.081,727.782 816.467,728.314 815.859,728.853 815.255,729.397 814.658,729.947 814.065,730.504 813.479,731.066 812.898,731.634 812.322,732.208 811.753,732.788 811.189,733.373 810.631,733.964 810.08,734.56 809.534,735.162 808.994,735.77 808.46,736.383 807.932,737.001 807.411,737.624 806.896,738.252 806.387,738.886 805.885,739.525 805.389,740.168 804.899,740.817 804.416,741.47 803.94,742.128 803.47,742.791 803.007,743.459 802.55,744.131 802.1,744.808 801.657,745.489 801.221,746.175 800.792,746.865 800.369,747.559 799.954,748.257 799.546,748.96 799.144,749.666 798.75,750.377 798.363,751.091 797.983,751.81 797.61,752.532 797.244,753.257 796.886,753.987 796.535,754.72 796.192,755.456 795.855,756.196 795.527,756.939 795.205,757.685 794.891,758.435 794.585,759.187 794.286,759.943 793.995,760.702 793.711,761.463 793.435,762.227 793.167,762.994 792.906,763.764 792.653,764.536 792.408,765.311 792.17,766.088 791.941,766.868 791.719,767.649 791.505,768.433 791.298,769.219 791.1,770.007 790.91,770.797 790.727,771.589 790.552,772.383 790.386,773.178 790.227,773.975 790.076,774.773 789.934,775.573 789.799,776.375 789.672,777.177 789.553,777.981 789.443,778.786 789.34,779.592 789.246,780.399 789.159,781.207 789.081,782.016 789.01,782.826 788.948,783.636 788.894,784.447 788.848,785.258 788.81,786.07 788.781,786.882 788.759,787.694 788.746,788.507 788.74,789.319 788.743,790.132 788.754,790.944 788.773,791.757 788.8,792.569 788.835,793.381 788.879,794.192 788.93,795.003 788.99,795.813 789.058,796.623 789.133,797.432 789.217,798.24 789.309,799.048 789.409,799.854 789.517,800.66 789.633,801.464 789.758,802.267 789.89,803.069 790.03,803.869 790.178,804.668 790.334,805.465 790.498,806.261 790.671,807.055 790.851,807.848 791.039,808.638 791.234,809.427 791.438,810.214 791.65,810.998 791.869,811.781 792.096,812.561 792.331,813.339 792.574,814.114 792.825,814.887 793.083,815.658 793.349,816.426 793.622,817.191 793.904,817.953 794.193,818.713 794.489,819.469 794.793,820.223 795.104,820.973 795.423,821.721 795.75,822.465 796.084,823.206 796.425,823.943 796.774,824.677 797.13,825.408 797.493,826.135 797.863,826.858 798.241,827.577 798.626,828.293 799.018,829.005 799.417,829.713 799.823,830.416 800.236,831.116 800.656,831.812 801.084,832.503 801.518,833.19 801.958,833.873 802.406,834.551 802.86,835.224 803.321,835.893 803.789,836.558 804.264,837.218 804.745,837.873 805.232,838.523 805.726,839.168 806.226,839.808 806.733,840.443 807.246,841.074 807.766,841.698 808.291,842.318 808.823,842.933 809.361,843.542 809.905,844.145 810.455,844.744 811.011,845.336 811.573,845.923 812.14,846.505 812.714,847.081 813.293,847.651 813.878,848.215 814.468,848.773 815.064,849.325 815.666,849.872 816.273,850.412 816.885,850.946 817.503,851.474 818.126,851.996 818.754,852.512 819.387,853.021 820.025,853.524 820.668,854.02 821.316,854.511 821.969,854.994 822.627,855.471 823.29,855.942 823.957,856.405 824.629,856.862 825.305,857.313 825.986,857.756 826.672,858.193 827.361,858.623 828.055,859.046 828.753,859.462 829.455,859.871 830.161,860.273 830.872,860.667 831.586,861.055 832.304,861.436 833.026,861.809 833.751,862.175 834.48,862.534 835.213,862.886 835.949,863.23 836.688,863.567 837.431,863.896 838.177,864.218 838.926,864.532 839.679,864.839 840.434,865.139 841.193,865.431 841.954,865.715 842.718,865.992 843.485,866.261 844.254,866.522 845.026,866.776 845.801,867.021 846.578,867.26 847.357,867.49 848.138,867.712 848.922,867.927 849.708,868.134 850.496,868.333 851.286,868.524 852.077,868.707 852.871,868.882 853.666,869.05 854.463,869.209 855.261,869.361 856.061,869.504 856.862,869.639 857.665,869.767 858.469,869.886 859.273,869.997 860.08,870.101 860.887,870.196 861.694,870.283 862.503,870.362 863.313,870.433 864.123,870.496 864.934,870.55 865.745,870.597 866.557,870.635 867.369,870.666 868.181,870.688 868.993,870.702 869.806,870.708 870.618,870.706 871.431,870.696 872.243,870.677 873.056,870.651 873.867,870.616 874.679,870.574 875.49,870.523 876.3,870.464 877.11,870.397 877.919,870.322 878.728,870.238 879.535,870.147 880.342,870.048 881.147,869.94 881.951,869.825 882.754,869.701 883.556,869.57 884.357,869.43 885.156,869.282 885.954,869.127 886.75,868.963 887.544,868.792 888.336,868.613 889.127,868.425 889.916,868.23 890.703,868.027 891.487,867.816 892.27,867.597 893.05,867.371 893.828,867.136 894.604,866.894 895.377,866.644 896.148,866.386 896.916,866.121 897.681,865.848 898.444,865.568 899.204,865.279 899.961,864.983 900.714,864.68 901.465,864.369 902.213,864.051 902.957,863.725 903.698,863.392 904.436,863.051 905.17,862.703 905.901,862.348 906.628,861.985 907.352,861.615 908.072,861.238 908.788,860.854 909.5,860.462 910.208,860.064 910.912,859.658 911.612,859.245 912.308,858.826 913,858.399 913.687,857.966 914.37,857.526 915.048,857.078 915.722,856.625 916.392,856.164 917.057,855.697 917.717,855.223 918.372,854.742 919.023,854.255 919.668,853.762 920.309,853.262 920.945,852.756 921.575,852.243 922.2,851.724 922.821,851.199 923.435,850.668 924.045,850.131 924.649,849.587 925.248,849.038 925.841,848.482 926.428,847.921 927.01,847.354 927.586,846.781 928.157,846.202 928.721,845.617 929.28,845.027 929.833,844.432 930.38,843.831 930.921,843.224 931.455,842.612 931.984,841.995 932.506,841.373 933.022,840.745 933.532,840.112 934.036,839.475 934.533,838.832 935.023,838.184 935.507,837.531 935.985,836.874 936.456,836.212 936.92,835.545 937.378,834.873 937.829,834.197 938.273,833.517 938.71,832.832 939.14,832.142 939.564,831.449 939.98,830.751 940.39,830.049 940.792,829.343 941.188,828.634 941.576,827.92 941.957,827.202 942.331,826.481 942.698,825.755 943.057,825.027 943.409,824.294 943.754,823.558 944.092,822.819 944.422,822.077 944.744,821.331 945.059,820.582 945.367,819.83 945.667,819.074 945.959,818.316 946.244,817.555 946.521,816.791 946.791,816.025 947.053,815.256 947.307,814.484 947.554,813.71 947.792,812.933 948.023,812.154 948.246,811.372 948.462,810.589 948.669,809.803 948.869,809.016 949.061,808.226 949.244,807.434 949.42,806.641 949.588,805.846 949.748,805.049 949.9,804.251 950.044,803.451 950.18,802.65 950.308,801.848 950.428,801.044 950.54,800.239 950.644,799.433 950.74,798.626 950.828,797.818 950.907,797.01 950.979,796.2 951.042,795.39 951.098,794.58 951.145,793.768 951.184,792.957 951.215,792.145 951.238,791.332 951.253,790.52 951.259,789.707 " />
<polygon points="951.26,411.496 951.256,410.683 951.244,409.871 951.223,409.058 951.195,408.246 951.158,407.434 951.114,406.623 951.061,405.812 951,405.002 950.931,404.192 950.854,403.383 950.769,402.575 950.675,401.768 950.574,400.962 950.465,400.157 950.347,399.352 950.222,398.55 950.088,397.748 949.947,396.948 949.798,396.149 949.64,395.352 949.475,394.556 949.301,393.762 949.12,392.97 948.931,392.18 948.734,391.392 948.529,390.605 948.316,389.821 948.095,389.039 947.867,388.259 947.63,387.482 947.386,386.707 947.135,385.934 946.875,385.164 946.608,384.397 946.333,383.632 946.051,382.87 945.761,382.111 945.463,381.355 945.158,380.602 944.845,379.852 944.525,379.105 944.197,378.361 943.862,377.621 943.52,376.884 943.17,376.151 942.813,375.421 942.449,374.694 942.077,373.972 941.698,373.253 941.312,372.538 940.919,371.827 940.519,371.119 940.112,370.416 939.697,369.717 939.276,369.022 938.848,368.332 938.413,367.645 937.971,366.963 937.522,366.286 937.067,365.613 936.604,364.945 936.136,364.281 935.66,363.622 935.178,362.968 934.69,362.318 934.195,361.674 933.693,361.035 933.185,360.4 932.671,359.771 932.151,359.147 931.624,358.528 931.092,357.914 930.553,357.306 930.008,356.703 929.457,356.106 928.9,355.514 928.337,354.928 927.769,354.347 927.194,353.773 926.614,353.204 926.029,352.64 925.437,352.083 924.84,351.532 924.238,350.986 923.63,350.447 923.017,349.914 922.399,349.387 921.775,348.866 921.146,348.351 920.512,347.843 919.873,347.341 919.229,346.845 918.58,346.356 917.926,345.874 917.267,345.398 916.604,344.928 915.936,344.466 915.264,344.01 914.586,343.56 913.905,343.118 913.219,342.682 912.529,342.254 911.834,341.832 911.135,341.417 910.433,341.009 909.726,340.608 909.015,340.215 908.3,339.828 907.581,339.449 906.859,339.076 906.133,338.711 905.403,338.354 904.67,338.003 903.934,337.66 903.194,337.325 902.45,336.996 901.704,336.676 900.954,336.362 900.201,336.057 899.445,335.758 898.686,335.468 897.925,335.185 897.16,334.909 896.393,334.641 895.623,334.381 894.851,334.129 894.076,333.884 893.298,333.648 892.519,333.418 891.737,333.197 890.953,332.984 890.167,332.778 889.379,332.58 888.588,332.391 887.796,332.209 887.003,332.035 886.207,331.869 885.41,331.71 884.612,331.56 883.812,331.418 883.01,331.284 882.207,331.158 881.403,331.04 880.598,330.93 879.792,330.828 878.985,330.734 878.177,330.648 877.368,330.571 876.558,330.501 875.748,330.439 874.937,330.386 874.126,330.341 873.314,330.304 872.502,330.274 871.69,330.253 870.877,330.241 870.065,330.236 869.252,330.239 868.44,330.251 867.627,330.271 866.815,330.298 866.003,330.334 865.192,330.378 864.381,330.43 863.571,330.491 862.761,330.559 861.952,330.635 861.144,330.72 860.336,330.813 859.53,330.913 858.725,331.022 857.921,331.139 857.118,331.264 856.316,331.396 855.516,331.537 854.717,331.686 853.92,331.843 853.124,332.008 852.33,332.18 851.538,332.361 850.747,332.55 849.959,332.746 849.172,332.95 848.388,333.163 847.606,333.383 846.826,333.611 846.048,333.846 845.273,334.09 844.5,334.341 843.73,334.6 842.962,334.866 842.197,335.14 841.435,335.422 840.676,335.712 839.919,336.009 839.166,336.313 838.416,336.625 837.668,336.945 836.925,337.272 836.184,337.606 835.447,337.948 834.713,338.297 833.983,338.654 833.256,339.018 832.533,339.389 831.814,339.767 831.099,340.153 830.387,340.545 829.68,340.945 828.976,341.351 828.277,341.765 827.582,342.186 826.891,342.614 826.204,343.048 825.522,343.489 824.844,343.938 824.171,344.393 823.502,344.854 822.838,345.323 822.178,345.797 821.524,346.279 820.874,346.767 820.229,347.261 819.59,347.762 818.955,348.27 818.325,348.783 817.7,349.303 817.081,349.829 816.467,350.361 815.859,350.9 815.255,351.444 814.658,351.995 814.065,352.551 813.479,353.113 812.898,353.682 812.322,354.255 811.753,354.835 811.189,355.42 810.631,356.011 810.08,356.608 809.534,357.21 808.994,357.817 808.46,358.43 807.932,359.048 807.411,359.671 806.896,360.3 806.387,360.933 805.885,361.572 805.389,362.215 804.899,362.864 804.416,363.517 803.94,364.176 803.47,364.839 803.007,365.506 802.55,366.178 802.1,366.855 801.657,367.536 801.221,368.222 800.792,368.912 800.369,369.606 799.954,370.305 799.546,371.007 799.144,371.714 798.75,372.424 798.363,373.139 797.983,373.857 797.61,374.579 797.244,375.305 796.886,376.034 796.535,376.767 796.192,377.503 795.855,378.243 795.527,378.986 795.205,379.733 794.891,380.482 794.585,381.235 794.286,381.99 793.995,382.749 793.711,383.51 793.435,384.275 793.167,385.042 792.906,385.811 792.653,386.584 792.408,387.358 792.17,388.135 791.941,388.915 791.719,389.696 791.505,390.48 791.298,391.266 791.1,392.054 790.91,392.844 790.727,393.636 790.552,394.43 790.386,395.225 790.227,396.022 790.076,396.821 789.934,397.62 789.799,398.422 789.672,399.224 789.553,400.028 789.443,400.833 789.34,401.639 789.246,402.447 789.159,403.255 789.081,404.063 789.01,404.873 788.948,405.683 788.894,406.494 788.848,407.305 788.81,408.117 788.781,408.929 788.759,409.741 788.746,410.554 788.74,411.366 788.743,412.179 788.754,412.991 788.773,413.804 788.8,414.616 788.835,415.428 788.879,416.239 788.93,417.05 788.99,417.861 789.058,418.67 789.133,419.479 789.217,420.288 789.309,421.095 789.409,421.901 789.517,422.707 789.633,423.511 789.758,424.314 789.89,425.116 790.03,425.916 790.178,426.715 790.334,427.513 790.498,428.309 790.671,429.103 790.851,429.895 791.039,430.686 791.234,431.474 791.438,432.261 791.65,433.046 791.869,433.828 792.096,434.608 792.331,435.386 792.574,436.161 792.825,436.934 793.083,437.705 793.349,438.473 793.622,439.238 793.904,440 794.193,440.76 794.489,441.516 794.793,442.27 795.104,443.021 795.423,443.768 795.75,444.512 796.084,445.253 796.425,445.99 796.774,446.724 797.13,447.455 797.493,448.182 797.863,448.905 798.241,449.624 798.626,450.34 799.018,451.052 799.417,451.76 799.823,452.464 800.236,453.163 800.656,453.859 801.084,454.55 801.518,455.237 801.958,455.92 802.406,456.598 802.86,457.272 803.321,457.941 803.789,458.605 804.264,459.265 804.745,459.92 805.232,460.57 805.726,461.215 806.226,461.855 806.733,462.491 807.246,463.121 807.766,463.746 808.291,464.365 808.823,464.98 809.361,465.589 809.905,466.193 810.455,466.791 811.011,467.384 811.573,467.971 812.14,468.552 812.714,469.128 813.293,469.698 813.878,470.262 814.468,470.82 815.064,471.373 815.666,471.919 816.273,472.459 816.885,472.993 817.503,473.521 818.126,474.043 818.754,474.559 819.387,475.068 820.025,475.571 820.668,476.068 821.316,476.558 821.969,477.041 822.627,477.518 823.29,477.989 823.957,478.453 824.629,478.91 825.305,479.36 825.986,479.804 826.672,480.24 827.361,480.67 828.055,481.093 828.753,481.509 829.455,481.918 830.161,482.32 830.872,482.715 831.586,483.102 832.304,483.483 833.026,483.856 833.751,484.222 834.48,484.581 835.213,484.933 835.949,485.277 836.688,485.614 837.431,485.943 838.177,486.265 838.926,486.58 839.679,486.887 840.434,487.186 841.193,487.478 841.954,487.762 842.718,488.039 843.485,488.308 844.254,488.569 845.026,488.823 845.801,489.069 846.578,489.307 847.357,489.537 848.138,489.76 848.922,489.974 849.708,490.181 850.496,490.38 851.286,490.571 852.077,490.754 852.871,490.93 853.666,491.097 854.463,491.256 855.261,491.408 856.061,491.551 856.862,491.687 857.665,491.814 858.469,491.933 859.273,492.045 860.08,492.148 860.887,492.243 861.694,492.33 862.503,492.409 863.313,492.48 864.123,492.543 864.934,492.597 865.745,492.644 866.557,492.683 867.369,492.713 868.181,492.735 868.993,492.749 869.806,492.755 870.618,492.753 871.431,492.743 872.243,492.725 873.056,492.698 873.867,492.664 874.679,492.621 875.49,492.57 876.3,492.511 877.11,492.444 877.919,492.369 878.728,492.286 879.535,492.194 880.342,492.095 881.147,491.987 881.951,491.872 882.754,491.748 883.556,491.617 884.357,491.477 885.156,491.33 885.954,491.174 886.75,491.011 887.544,490.839 888.336,490.66 889.127,490.472 889.916,490.277 890.703,490.074 891.487,489.863 892.27,489.644 893.05,489.418 893.828,489.183 894.604,488.941 895.377,488.691 896.148,488.434 896.916,488.168 897.681,487.895 898.444,487.615 899.204,487.327 899.961,487.031 900.714,486.727 901.465,486.416 902.213,486.098 902.957,485.772 903.698,485.439 904.436,485.098 905.17,484.75 905.901,484.395 906.628,484.032 907.352,483.662 908.072,483.285 908.788,482.901 909.5,482.509 910.208,482.111 910.912,481.705 911.612,481.293 912.308,480.873 913,480.446 913.687,480.013 914.37,479.573 915.048,479.126 915.722,478.672 916.392,478.211 917.057,477.744 917.717,477.27 918.372,476.79 919.023,476.303 919.668,475.809 920.309,475.309 920.945,474.803 921.575,474.29 922.2,473.772 922.821,473.246 923.435,472.715 924.045,472.178 924.649,471.634 925.248,471.085 925.841,470.529 926.428,469.968 927.01,469.401 927.586,468.828 928.157,468.249 928.721,467.665 929.28,467.075 929.833,466.479 930.38,465.878 930.921,465.272 931.455,464.66 931.984,464.042 932.506,463.42 933.022,462.792 933.532,462.16 934.036,461.522 934.533,460.879 935.023,460.231 935.507,459.578 935.985,458.921 936.456,458.259 936.92,457.592 937.378,456.92 937.829,456.244 938.273,455.564 938.71,454.879 939.14,454.19 939.564,453.496 939.98,452.798 940.39,452.097 940.792,451.391 941.188,450.681 941.576,449.967 941.957,449.249 942.331,448.528 942.698,447.803 943.057,447.074 943.409,446.342 943.754,445.606 944.092,444.866 944.422,444.124 944.744,443.378 945.059,442.629 945.367,441.877 945.667,441.122 945.959,440.364 946.244,439.603 946.521,438.839 946.791,438.072 947.053,437.303 947.307,436.531 947.554,435.757 947.792,434.98 948.023,434.201 948.246,433.42 948.462,432.636 948.669,431.85 948.869,431.063 949.061,430.273 949.244,429.482 949.42,428.688 949.588,427.893 949.748,427.096 949.9,426.298 950.044,425.499 950.18,424.697 950.308,423.895 950.428,423.091 950.54,422.286 950.644,421.48 950.74,420.674 950.828,419.866 950.907,419.057 950.979,418.248 951.042,417.437 951.098,416.627 951.145,415.816 951.184,415.004 951.215,414.192 951.238,413.38 951.253,412.567 951.259,411.755 " />
</g>
</svg>
